<svg width="40" height="40" viewBox="0 0 40 40" fill="none" xmlns="http://www.w3.org/2000/svg">
<path d="M14.1667 21.6667H25.8334M20.0001 15.8333V27.5M15.0001 10.1554C16.5358 10.0575 18.2351 10 20.0001 10C21.7651 10 23.4644 10.0575 25.0001 10.1554M15.0001 10.1554C15.0001 10.1554 8.88897 10.6481 8.14823 11.2963C7.57252 11.8 6.99681 14.6529 6.76886 18.3333C6.70352 19.3884 6.66675 20.5114 6.66675 21.6667C6.66675 26.8519 7.40749 31.3889 8.14823 32.037C8.88897 32.6852 14.0742 33.3333 20.0001 33.3333C25.926 33.3333 31.1112 32.6852 31.8519 32.037C32.5927 31.3889 33.3334 26.8519 33.3334 21.6667C33.3334 20.5114 33.2966 19.3884 33.2313 18.3333C33.0033 14.6529 32.4276 11.8 31.8519 11.2963C31.1112 10.6481 25.0001 10.1554 25.0001 10.1554M15.0001 10.1554V8.33333C15.0001 5.37494 17.7289 5 20.0001 5C22.2712 5 25.0001 5.37494 25.0001 8.33333V10.1554" stroke="#2C2C2C" stroke-width="1.5" stroke-linecap="round" stroke-linejoin="round"/>
</svg>
