<svg width="340" height="81" viewBox="0 0 340 81" fill="none" xmlns="http://www.w3.org/2000/svg">
<g clip-path="url(#clip0_4_2)">
<path d="M240.345 51.4164V63.4345H235.003C225.168 63.4345 220.251 58.5382 220.251 48.7457V39.3346H215.8V27.5708H220.251V18.9229H234.368V27.5708H240.218V39.3346H234.368V49C234.368 49.8479 234.558 50.4625 234.94 50.8441C235.364 51.2256 236.042 51.4164 236.975 51.4164H240.345Z" fill="#B6D7FB"/>
<path d="M202.459 34.1839C203.9 32.1067 205.66 30.4534 207.737 29.224C209.814 27.9523 211.976 27.3164 214.223 27.3164V42.3868H210.217C207.546 42.3868 205.575 42.8531 204.303 43.7857C203.074 44.7183 202.459 46.3716 202.459 48.7456V63.4344H188.343V27.5708H202.459V34.1839Z" fill="#B6D7FB"/>
<path d="M164.959 63.8799C161.355 63.8799 158.112 63.138 155.23 61.6543C152.347 60.1706 150.079 58.051 148.426 55.2955C146.815 52.4976 146.009 49.2334 146.009 45.5029C146.009 41.7724 146.815 38.5294 148.426 35.774C150.079 32.9761 152.347 30.8353 155.23 29.3516C158.112 27.8678 161.355 27.126 164.959 27.126C168.562 27.126 171.805 27.8678 174.688 29.3516C177.57 30.8353 179.817 32.9761 181.428 35.774C183.081 38.5294 183.908 41.7724 183.908 45.5029C183.908 49.2334 183.081 52.4976 181.428 55.2955C179.817 58.051 177.57 60.1706 174.688 61.6543C171.805 63.138 168.562 63.8799 164.959 63.8799ZM164.959 51.671C166.273 51.671 167.375 51.1623 168.265 50.1449C169.155 49.0851 169.6 47.5378 169.6 45.5029C169.6 43.4681 169.155 41.942 168.265 40.9246C167.375 39.8648 166.273 39.3349 164.959 39.3349C163.644 39.3349 162.542 39.8648 161.652 40.9246C160.762 41.942 160.317 43.4681 160.317 45.5029C160.317 47.5378 160.741 49.0851 161.588 50.1449C162.479 51.1623 163.602 51.671 164.959 51.671Z" fill="#B6D7FB"/>
<path d="M118.813 32.4674C119.704 30.8141 120.975 29.5211 122.629 28.5885C124.324 27.6135 126.338 27.126 128.669 27.126C131.467 27.126 133.99 27.8678 136.236 29.3516C138.483 30.7929 140.243 32.9125 141.514 35.7104C142.828 38.4659 143.486 41.73 143.486 45.5029C143.486 49.2758 142.828 52.5612 141.514 55.3591C140.243 58.1146 138.483 60.2342 136.236 61.7179C133.99 63.1592 131.467 63.8799 128.669 63.8799C126.338 63.8799 124.324 63.4136 122.629 62.481C120.975 61.5059 119.704 60.1918 118.813 58.5385V80.6036H104.697V27.5711H118.813V32.4674ZM129.178 45.5029C129.178 43.5953 128.691 42.1116 127.716 41.0518C126.741 39.992 125.49 39.4621 123.964 39.4621C122.438 39.4621 121.187 39.992 120.212 41.0518C119.237 42.1116 118.75 43.5953 118.75 45.5029C118.75 47.4106 119.237 48.8943 120.212 49.9541C121.187 51.0139 122.438 51.5438 123.964 51.5438C125.49 51.5438 126.741 51.0139 127.716 49.9541C128.691 48.8943 129.178 47.4106 129.178 45.5029Z" fill="#B6D7FB"/>
<path d="M98.3211 16.3799V63.4351H84.2046V16.3799H98.3211Z" fill="#101529"/>
<path d="M77.829 16.3799V63.4351H63.7124V16.3799H77.829Z" fill="#101529"/>
<path d="M50.3419 24.7101C47.8832 24.7101 45.9119 24.053 44.4282 22.7389C42.9445 21.4247 42.2026 19.7714 42.2026 17.779C42.2026 15.7442 42.9445 14.0697 44.4282 12.7555C45.9119 11.399 47.8832 10.7207 50.3419 10.7207C52.7583 10.7207 54.7083 11.399 56.192 12.7555C57.6757 14.0697 58.4176 15.7442 58.4176 17.779C58.4176 19.7714 57.6757 21.4247 56.192 22.7389C54.7083 24.053 52.7583 24.7101 50.3419 24.7101ZM57.3366 27.5716V63.4352H43.22V27.5716H57.3366Z" fill="#101529"/>
<path d="M14.1166 32.4674C15.0068 30.8141 16.2786 29.5211 17.9318 28.5885C19.6275 27.6135 21.6411 27.126 23.9727 27.126C26.7706 27.126 29.2929 27.8678 31.5397 29.3516C33.7865 30.7929 35.5457 32.9125 36.8175 35.7104C38.1317 38.4659 38.7887 41.73 38.7887 45.5029C38.7887 49.2758 38.1317 52.5612 36.8175 55.3591C35.5457 58.1146 33.7865 60.2342 31.5397 61.7179C29.2929 63.1592 26.7706 63.8799 23.9727 63.8799C21.6411 63.8799 19.6275 63.4136 17.9318 62.481C16.2786 61.5059 15.0068 60.1918 14.1166 58.5385V80.6036H0V27.5711H14.1166V32.4674ZM24.4814 45.5029C24.4814 43.5953 23.9939 42.1116 23.0189 41.0518C22.0439 39.992 20.7933 39.4621 19.2672 39.4621C17.7411 39.4621 16.4905 39.992 15.5155 41.0518C14.5405 42.1116 14.053 43.5953 14.053 45.5029C14.053 47.4106 14.5405 48.8943 15.5155 49.9541C16.4905 51.0139 17.7411 51.5438 19.2672 51.5438C20.7933 51.5438 22.0439 51.0139 23.0189 49.9541C23.9939 48.8943 24.4814 47.4106 24.4814 45.5029Z" fill="#101529"/>
<mask id="mask0_4_2" style="mask-type:luminance" maskUnits="userSpaceOnUse" x="247" y="0" width="93" height="81">
<path d="M339.673 0H247.345V80.6034H339.673V0Z" fill="white"/>
</mask>
<g mask="url(#mask0_4_2)">
<path d="M319.303 36.8135C319.214 36.8135 319.131 36.7612 319.1 36.6775C319.053 36.5624 319.11 36.4369 319.219 36.3898C323.758 34.533 330.017 31.5672 331.947 27.2677C333.663 23.4389 332.61 15.5721 332.244 13.2497C332.224 13.1294 332.307 13.0144 332.427 12.9934C332.547 12.9725 332.662 13.0562 332.683 13.1765C333.053 15.5303 334.117 23.5069 332.354 27.4455C330.361 31.8915 324.003 34.9148 319.392 36.7978C319.366 36.8083 319.334 36.8135 319.308 36.8135H319.303Z" fill="#101529" stroke="#101529" stroke-width="4"/>
<path d="M310.962 3.38759L275.154 0.84524C268.579 0.378431 262.871 5.34469 262.406 11.9377L258.713 64.2381C258.247 70.8311 263.2 76.5542 269.775 77.021L305.583 79.5633C312.158 80.0301 317.866 75.0639 318.331 68.4709L322.024 16.1705C322.49 9.57751 317.537 3.8544 310.962 3.38759Z" fill="#7D8792"/>
<path d="M306.429 79.8342C306.142 79.8342 305.85 79.8237 305.558 79.8028L269.749 77.2555C263.056 76.7795 257.991 70.9317 258.466 64.2157L262.164 11.9151C262.394 8.66167 263.875 5.69593 266.327 3.55663C268.778 1.41732 271.924 0.376433 275.168 0.606579L310.978 3.15387C317.67 3.62985 322.735 9.47764 322.261 16.1937L318.562 68.4943C318.108 74.9174 312.751 79.8394 306.429 79.8394V79.8342ZM305.595 79.3268C312.026 79.7819 317.634 74.907 318.088 68.4577L321.786 16.1571C322.24 9.70779 317.378 4.08491 310.947 3.62985L275.137 1.08256C272.023 0.862877 269.003 1.86715 266.645 3.92277C264.287 5.97838 262.863 8.82905 262.644 11.9517L258.946 64.2523C258.492 70.7016 263.354 76.3244 269.785 76.7795L305.595 79.3268Z" fill="#101529" stroke="#101529" stroke-width="2"/>
<path d="M313.716 74.4369C312.141 76.0217 309.308 77.3398 304.89 77.4078C303.581 77.4288 302.204 77.2562 287.823 76.231C273.442 75.211 266.984 74.3166 265.429 73.6523C263.812 72.9618 262.529 72.3812 260.912 70.0432C260.135 68.9186 259.587 68.0399 258.919 64.2529C258.226 71.0736 263.192 76.5553 269.769 77.0208L305.579 79.5681C312.151 80.0336 317.863 75.0698 318.327 68.4792L318.567 65.0951C317.519 69.881 315.422 72.7212 313.716 74.4369Z" fill="#101529"/>
<path d="M280.854 16.6595C280.635 19.7873 277.922 22.1463 274.803 21.9214C271.684 21.7017 269.331 18.9818 269.556 15.8539C269.78 12.7261 272.487 10.3671 275.606 10.592C278.726 10.8117 281.078 13.5316 280.854 16.6595Z" fill="#B6D7FB"/>
<path d="M275.21 22.1566C275.069 22.1566 274.928 22.1566 274.788 22.1409C271.548 21.9108 269.102 19.081 269.331 15.8381C269.561 12.5899 272.383 10.142 275.617 10.3669C278.856 10.597 281.303 13.4268 281.073 16.6697C280.854 19.7715 278.262 22.1514 275.205 22.1514L275.21 22.1566ZM275.2 10.7958C272.372 10.7958 269.978 12.9979 269.775 15.8694C269.561 18.8718 271.825 21.4871 274.819 21.6963C277.813 21.9108 280.421 19.6407 280.63 16.6383C280.844 13.636 278.58 11.0207 275.586 10.8062C275.455 10.7958 275.325 10.7906 275.2 10.7906V10.7958Z" fill="#101529" stroke="#101529"/>
<path d="M277.635 62.1702C277.416 65.2981 274.704 67.6571 271.585 67.4322C268.465 67.2125 266.113 64.4926 266.337 61.3647C266.556 58.2368 269.269 55.8778 272.388 56.1027C275.507 56.3224 277.86 59.0423 277.635 62.1702Z" fill="#B6D7FB"/>
<path d="M271.997 67.6732C271.856 67.6732 271.715 67.6732 271.574 67.6576C270.004 67.5477 268.575 66.8311 267.547 65.6386C266.52 64.446 266.009 62.9239 266.123 61.3547C266.233 59.7803 266.947 58.3471 268.137 57.3167C269.326 56.2863 270.839 55.7789 272.409 55.8888C275.648 56.1189 278.095 58.9486 277.865 62.1916C277.756 63.766 277.041 65.1992 275.852 66.2296C274.772 67.1711 273.421 67.6732 272.002 67.6732H271.997ZM271.976 56.3124C270.667 56.3124 269.415 56.778 268.418 57.6462C267.318 58.6034 266.661 59.9268 266.556 61.3809C266.452 62.835 266.921 64.242 267.876 65.3404C268.831 66.4441 270.15 67.1031 271.6 67.2077C273.05 67.3123 274.454 66.8416 275.549 65.8844C276.644 64.9272 277.307 63.6039 277.411 62.1498C277.625 59.1474 275.361 56.5321 272.367 56.3229C272.237 56.3124 272.106 56.3072 271.976 56.3072V56.3124Z" fill="#101529" stroke="#101529"/>
<path d="M279.779 31.8284C279.56 34.9563 276.848 37.3153 273.728 37.0904C270.609 36.8707 268.257 34.1508 268.481 31.0229C268.7 27.895 271.412 25.536 274.532 25.7609C277.651 25.9806 280.004 28.7005 279.779 31.8284Z" fill="#B6D7FB"/>
<path d="M274.135 37.3306C273.994 37.3306 273.854 37.3306 273.713 37.3149C270.474 37.0848 268.027 34.255 268.257 31.012C268.366 29.4376 269.081 28.0045 270.27 26.974C271.459 25.9384 272.972 25.4363 274.542 25.5461C276.112 25.6559 277.542 26.3725 278.569 27.5651C279.597 28.7577 280.108 30.2798 279.993 31.8489C279.774 34.9507 277.182 37.3306 274.125 37.3306H274.135ZM274.125 25.9698C272.816 25.9698 271.564 26.4353 270.567 27.3036C269.472 28.2608 268.81 29.5841 268.705 31.0382C268.491 34.0406 270.755 36.6558 273.749 36.8651C276.743 37.0795 279.352 34.8094 279.56 31.8071C279.665 30.353 279.195 28.946 278.241 27.8423C277.286 26.7387 275.966 26.0796 274.516 25.975C274.386 25.9645 274.255 25.9593 274.125 25.9593V25.9698Z" fill="#101529" stroke="#101529"/>
<path d="M279.221 47.0384C279.002 50.1663 276.29 52.5252 273.171 52.3003C270.051 52.0806 267.699 49.3607 267.923 46.2329C268.142 43.105 270.855 40.746 273.974 40.9709C277.093 41.1906 279.446 43.9105 279.221 47.0384Z" fill="#B6D7FB"/>
<path d="M273.583 52.5356C273.442 52.5356 273.301 52.5356 273.16 52.5199C271.59 52.41 270.161 51.6934 269.133 50.5009C268.1 49.3083 267.594 47.7862 267.709 46.217C267.819 44.6426 268.533 43.2094 269.723 42.179C270.912 41.1486 272.425 40.6412 273.995 40.7511C277.234 40.9812 279.68 43.8109 279.451 47.0539C279.341 48.6283 278.627 50.0615 277.437 51.0919C276.358 52.0334 275.007 52.5356 273.588 52.5356H273.583ZM273.567 41.18C272.258 41.18 271.006 41.6455 270.009 42.5138C268.909 43.471 268.252 44.7943 268.147 46.2484C268.043 47.7025 268.512 49.1095 269.467 50.2132C270.422 51.3116 271.741 51.9759 273.191 52.0805C274.641 52.1851 276.045 51.7144 277.145 50.7572C278.246 49.8 278.903 48.4766 279.007 47.0225C279.221 44.0202 276.958 41.4049 273.963 41.1957C273.833 41.1852 273.703 41.18 273.572 41.18H273.567Z" fill="#101529" stroke="#101529"/>
<path d="M313.878 19.0022C313.659 22.1301 310.946 24.4891 307.827 24.2642C304.708 24.0445 302.355 21.3246 302.579 18.1967C302.799 15.0688 305.511 12.7098 308.63 12.9348C311.75 13.1544 314.102 15.8743 313.878 19.0022Z" fill="#B6D7FB"/>
<path d="M308.234 24.5053C308.093 24.5053 307.952 24.5053 307.811 24.4896C304.572 24.2594 302.126 21.4297 302.355 18.1867C302.465 16.6123 303.179 15.1792 304.369 14.1487C305.558 13.1183 307.071 12.6109 308.641 12.7208C310.211 12.8306 311.64 13.5472 312.668 14.7398C313.695 15.9324 314.207 17.4545 314.092 19.0236C313.873 22.1254 311.28 24.5053 308.224 24.5053H308.234ZM308.224 13.1445C306.914 13.1445 305.662 13.61 304.666 14.4783C303.565 15.4355 302.908 16.7588 302.804 18.2129C302.59 21.2152 304.854 23.8305 307.848 24.0398C310.842 24.2542 313.45 21.9841 313.659 18.9818C313.763 17.5277 313.294 16.1207 312.339 15.017C311.385 13.9186 310.065 13.2543 308.615 13.1497C308.484 13.1392 308.354 13.134 308.224 13.134V13.1445Z" fill="#101529"/>
<path d="M313.659 18.9818C313.45 21.9841 310.842 24.2542 307.848 24.0398C304.854 23.8305 302.59 21.2152 302.804 18.2129C302.908 16.7588 303.565 15.4355 304.666 14.4783C305.662 13.61 306.914 13.1445 308.224 13.1445V13.134C308.354 13.134 308.484 13.1392 308.615 13.1497C310.065 13.2543 311.385 13.9186 312.339 15.017C313.294 16.1207 313.763 17.5277 313.659 18.9818ZM313.659 18.9818L313.878 18.9975M308.234 24.5053C308.093 24.5053 307.952 24.5053 307.811 24.4896C304.572 24.2594 302.126 21.4297 302.355 18.1867C302.465 16.6123 303.179 15.1792 304.369 14.1487C305.558 13.1183 307.071 12.6109 308.641 12.7208C310.211 12.8306 311.64 13.5472 312.668 14.7398C313.695 15.9324 314.207 17.4545 314.092 19.0236C313.873 22.1254 311.28 24.5053 308.224 24.5053H308.234Z" stroke="#101529"/>
<path d="M310.665 64.5188C310.446 67.6467 307.733 70.0057 304.614 69.7808C301.495 69.5611 299.142 66.8412 299.366 63.7133C299.585 60.5854 302.298 58.2264 305.417 58.4514C308.537 58.671 310.889 61.3909 310.665 64.5188Z" fill="#B6D7FB"/>
<path d="M305.021 70.0215C304.88 70.0215 304.739 70.0215 304.598 70.0058C301.359 69.7756 298.913 66.9459 299.142 63.7029C299.372 60.4547 302.188 58.0016 305.428 58.2318C306.998 58.3416 308.427 59.0582 309.455 60.2508C310.482 61.4433 310.993 62.9654 310.879 64.5346C310.769 66.109 310.055 67.5422 308.865 68.5726C307.785 69.5141 306.434 70.0162 305.016 70.0162L305.021 70.0215ZM305.005 58.6607C303.696 58.6607 302.444 59.1262 301.448 59.9945C300.352 60.9517 299.69 62.275 299.585 63.7291C299.372 66.7314 301.635 69.3467 304.63 69.556C307.624 69.7704 310.232 67.5003 310.441 64.498C310.545 63.0439 310.075 61.6369 309.121 60.5332C308.166 59.4348 306.847 58.7705 305.396 58.6659C305.266 58.6554 305.136 58.6502 305.005 58.6502V58.6607Z" fill="#101529"/>
<path d="M310.441 64.498C310.232 67.5003 307.624 69.7704 304.63 69.556C301.635 69.3467 299.372 66.7314 299.585 63.7291C299.69 62.275 300.352 60.9517 301.448 59.9945C302.444 59.1262 303.696 58.6607 305.005 58.6607V58.6502C305.136 58.6502 305.266 58.6554 305.396 58.6659C306.847 58.7705 308.166 59.4348 309.121 60.5332C310.075 61.6369 310.545 63.0439 310.441 64.498ZM310.441 64.498L310.66 64.5137M305.021 70.0215C304.88 70.0215 304.739 70.0215 304.598 70.0058C301.359 69.7756 298.913 66.9459 299.142 63.7029C299.372 60.4547 302.188 58.0016 305.428 58.2318C306.998 58.3416 308.427 59.0582 309.455 60.2508C310.482 61.4433 310.993 62.9654 310.879 64.5346C310.769 66.109 310.055 67.5422 308.865 68.5726C307.785 69.5141 306.434 70.0162 305.016 70.0162L305.021 70.0215Z" stroke="#101529"/>
<path d="M312.809 34.177C312.589 37.3049 309.877 39.6639 306.758 39.439C303.638 39.2141 301.286 36.4994 301.51 33.3715C301.729 30.2436 304.442 27.8846 307.561 28.1096C310.68 28.3292 313.033 31.0491 312.809 34.177Z" fill="#B6D7FB"/>
<path d="M307.17 39.6743C307.029 39.6743 306.888 39.6743 306.747 39.6586C305.177 39.5488 303.748 38.8322 302.72 37.6396C301.693 36.4471 301.182 34.925 301.296 33.3558C301.406 31.7814 302.121 30.3482 303.31 29.3178C304.499 28.2821 306.017 27.78 307.582 27.8898C310.821 28.12 313.268 30.9497 313.038 34.1927C312.929 35.7671 312.214 37.2003 311.025 38.2307C309.945 39.1722 308.594 39.6743 307.175 39.6743H307.17ZM307.149 28.3188C305.84 28.3188 304.588 28.7843 303.592 29.6525C302.491 30.6097 301.834 31.9331 301.729 33.3872C301.625 34.8413 302.094 36.2483 303.049 37.352C304.004 38.4504 305.323 39.1147 306.773 39.2193C308.224 39.3239 309.627 38.8531 310.727 37.8959C311.823 36.9387 312.485 35.6154 312.59 34.1613C312.803 31.159 310.54 28.5437 307.545 28.3344C307.415 28.324 307.285 28.3188 307.154 28.3188H307.149Z" fill="#101529" stroke="#101529"/>
<path d="M312.25 49.3821C312.031 52.51 309.319 54.869 306.2 54.6441C303.08 54.4244 300.728 51.7045 300.952 48.5766C301.171 45.4487 303.884 43.0897 307.003 43.3146C310.122 43.5343 312.475 46.2542 312.25 49.3821Z" fill="#B6D7FB"/>
<path d="M306.607 54.8848C306.466 54.8848 306.325 54.8848 306.184 54.8691C302.945 54.6389 300.498 51.8092 300.728 48.5662C300.957 45.318 303.774 42.8649 307.013 43.095C310.253 43.3252 312.699 46.1549 312.47 49.3979C312.25 52.5048 309.658 54.8795 306.601 54.8795L306.607 54.8848ZM306.596 43.5239C303.769 43.5239 301.375 45.726 301.171 48.5976C300.957 51.6 303.221 54.2152 306.215 54.4297C309.204 54.6442 311.818 52.3741 312.026 49.3717C312.24 46.3694 309.976 43.7541 306.982 43.5449C306.852 43.5344 306.721 43.5292 306.596 43.5292V43.5239Z" fill="#101529"/>
<path d="M312.026 49.3717C311.818 52.3741 309.204 54.6442 306.215 54.4297C303.221 54.2152 300.957 51.6 301.171 48.5976C301.375 45.726 303.769 43.5239 306.596 43.5239V43.5292C306.721 43.5292 306.852 43.5344 306.982 43.5449C309.976 43.7541 312.24 46.3694 312.026 49.3717ZM312.026 49.3717L312.245 49.3874M306.607 54.8848C306.466 54.8848 306.325 54.8848 306.184 54.8691C302.945 54.6389 300.498 51.8092 300.728 48.5662C300.957 45.318 303.774 42.8649 307.013 43.095C310.253 43.3252 312.699 46.1549 312.47 49.3979C312.25 52.5048 309.658 54.8795 306.601 54.8795L306.607 54.8848Z" stroke="#101529"/>
<path d="M323.455 9.21182C323.575 9.90226 324.018 10.7705 324.884 11.1524C325.432 11.393 326.027 11.4244 326.616 11.3564C327.002 11.3093 327.352 11.597 327.383 11.9893C327.446 12.7529 327.748 13.4434 328.332 14.0083C329.814 15.431 332.709 16.6131 334.712 15.7134C335.833 15.2113 336.668 14.1024 336.84 12.8785C336.913 12.3711 336.876 11.8533 337.007 11.3564C337.336 10.1062 338.614 9.29551 338.916 8.02448C338.958 7.85187 338.963 7.6688 338.916 7.50142C338.676 6.64884 337.471 6.84237 336.923 7.44388C336.407 8.01402 336.146 8.80906 335.536 9.27459C335.906 8.09771 336.11 6.86852 336.146 5.6341C336.157 5.18427 336.146 4.70829 335.838 4.34738C335.687 4.16431 335.458 4.04401 335.218 4.05447C334.8 4.07539 334.587 4.44676 334.42 4.78675C333.992 5.63933 333.559 6.49715 333.131 7.34973C333.319 6.2147 333.319 5.05351 333.136 3.91847C333.089 3.6151 332.959 3.32742 332.735 3.12343C332.083 2.52714 331.3 3.11297 331.081 3.77725C330.904 4.316 330.972 4.90182 330.94 5.47196C330.867 6.85806 330.142 8.19709 329.021 9.01306C329.01 7.63218 328.697 6.79006 327.899 6.06824C327.498 5.7021 326.898 5.36211 326.131 5.33596C325.182 5.30458 324.363 5.73349 323.914 6.57038C323.466 7.40204 323.293 8.25985 323.46 9.19613L323.455 9.21182ZM325.166 7.82049C325.338 7.41773 325.531 7.14574 325.896 7.07774C326.397 6.98359 326.903 7.32358 327.075 7.79956C327.247 8.28078 327.247 8.88752 326.84 9.41058C326.361 10.0278 325.547 9.7558 325.213 9.40012C324.79 8.95029 324.926 8.39062 325.166 7.82049Z" fill="#EE8469"/>
<path d="M333.142 16.2468C331.368 16.2468 329.386 15.3315 328.176 14.1703C327.565 13.5845 327.226 12.8574 327.159 12.0048C327.148 11.8741 327.086 11.759 326.986 11.6753C326.887 11.5968 326.762 11.5602 326.637 11.5707C325.927 11.6544 325.322 11.5811 324.79 11.351C323.841 10.9326 323.366 9.99105 323.231 9.2483C323.064 8.29634 323.22 7.39145 323.711 6.48133C324.196 5.5869 325.077 5.08999 326.131 5.12661C327.023 5.15799 327.659 5.57121 328.04 5.91642C328.786 6.59117 329.141 7.38099 329.219 8.57356C330.095 7.78897 330.648 6.65394 330.711 5.47182C330.721 5.31491 330.721 5.14753 330.721 4.98538C330.721 4.56693 330.721 4.13803 330.862 3.71958C331.024 3.22791 331.431 2.81469 331.874 2.69962C332.229 2.60547 332.583 2.69962 332.876 2.96638C333.126 3.19129 333.288 3.51559 333.35 3.89219C333.47 4.64539 333.512 5.40906 333.475 6.16749L334.221 4.69247C334.378 4.38386 334.639 3.86604 335.207 3.83988C335.505 3.82419 335.802 3.96542 336.011 4.21126C336.365 4.63493 336.381 5.17368 336.37 5.64443C336.344 6.57025 336.224 7.49083 336.016 8.39049C336.073 8.30157 336.13 8.21265 336.183 8.1185C336.355 7.83605 336.537 7.54837 336.767 7.29207C337.179 6.84224 337.867 6.60686 338.405 6.73239C338.775 6.82131 339.036 7.07238 339.14 7.43329C339.192 7.62682 339.198 7.84651 339.14 8.06619C338.973 8.76186 338.546 9.3163 338.134 9.85505C337.742 10.3572 337.377 10.8384 337.226 11.4085C337.153 11.6858 337.137 11.9787 337.116 12.2873C337.106 12.4913 337.09 12.6953 337.064 12.9045C336.882 14.1964 335.995 15.3733 334.811 15.9068C334.305 16.1317 333.741 16.2364 333.152 16.2364L333.142 16.2468ZM326.694 11.1261C326.903 11.1261 327.101 11.1993 327.268 11.3301C327.461 11.487 327.581 11.7171 327.597 11.963C327.654 12.7005 327.951 13.3334 328.478 13.8408C330.413 15.7028 333.173 16.1527 334.618 15.5041C335.671 15.0333 336.454 13.9872 336.616 12.8417C336.642 12.6534 336.652 12.4599 336.668 12.2611C336.689 11.9473 336.704 11.6178 336.788 11.2987C336.96 10.6396 337.372 10.1061 337.774 9.58829C338.175 9.06523 338.556 8.57356 338.702 7.97204C338.739 7.82036 338.739 7.67913 338.702 7.55883C338.645 7.3496 338.504 7.21884 338.295 7.16653C337.914 7.07761 337.388 7.26591 337.085 7.59021C336.882 7.81512 336.72 8.07142 336.553 8.34864C336.308 8.74617 336.057 9.15415 335.666 9.44706C335.588 9.5046 335.484 9.50983 335.405 9.44706C335.327 9.38953 335.291 9.29015 335.322 9.196C335.687 8.03481 335.885 6.83178 335.922 5.61828C335.932 5.2103 335.922 4.78662 335.666 4.47802C335.546 4.33679 335.385 4.2531 335.228 4.26356C334.941 4.27925 334.774 4.5617 334.618 4.87554L333.329 7.43852C333.282 7.5379 333.168 7.58498 333.063 7.54837C332.959 7.51698 332.896 7.40714 332.912 7.30253C333.095 6.18841 333.1 5.05861 332.917 3.9445C332.886 3.75096 332.803 3.47897 332.583 3.28021C332.401 3.11283 332.203 3.0553 331.994 3.11283C331.697 3.19129 331.41 3.48944 331.29 3.83988C331.175 4.19033 331.175 4.56693 331.17 4.96969C331.17 5.13707 331.17 5.30968 331.159 5.47706C331.081 6.93639 330.33 8.32249 329.151 9.18554C329.083 9.23261 328.995 9.24307 328.922 9.20646C328.849 9.16984 328.802 9.09139 328.802 9.0077C328.791 7.67913 328.499 6.89977 327.753 6.22503C327.43 5.93212 326.887 5.57644 326.126 5.55028C325.244 5.5189 324.509 5.92689 324.107 6.66963C323.669 7.4856 323.523 8.30157 323.674 9.14892C323.784 9.77659 324.185 10.5769 324.973 10.9221C325.427 11.1209 325.959 11.1836 326.59 11.1104C326.626 11.1104 326.663 11.1052 326.7 11.1052L326.694 11.1261ZM326.1 9.99628C325.667 9.99628 325.265 9.77659 325.051 9.55168C324.53 8.99724 324.712 8.32249 324.962 7.73667C325.124 7.35483 325.359 6.95208 325.854 6.86316C326.439 6.75332 327.065 7.13515 327.284 7.7262C327.518 8.36434 327.419 9.02862 327.018 9.54645C326.804 9.82367 326.507 9.98058 326.162 9.99628C326.141 9.99628 326.12 9.99628 326.1 9.99628ZM325.369 7.90928C325.088 8.57356 325.088 8.94493 325.369 9.2483C325.521 9.40522 325.818 9.56737 326.131 9.55168C326.345 9.54122 326.522 9.44707 326.658 9.27446C327.096 8.71478 326.945 8.11327 326.861 7.87789C326.715 7.48037 326.308 7.22407 325.933 7.2973C325.693 7.34437 325.536 7.51175 325.369 7.90928Z" fill="#101529" stroke="#101529"/>
<path d="M325.082 8.04612C324.571 7.82643 324.211 7.63813 323.716 7.38184L325.082 8.04612Z" fill="#EE8469"/>
<path d="M325.083 8.26541C325.051 8.26541 325.025 8.26018 324.994 8.24972C324.498 8.0405 324.138 7.85219 323.679 7.61682L323.612 7.5802C323.502 7.52267 323.46 7.3919 323.518 7.28206C323.575 7.17222 323.705 7.13037 323.815 7.18791L323.883 7.22453C324.347 7.46513 324.686 7.64297 325.166 7.84696C325.281 7.89404 325.333 8.0248 325.286 8.13988C325.249 8.22357 325.166 8.27587 325.083 8.27587V8.26541Z" fill="#101529"/>
<path d="M258.445 50.1035C258.419 50.1035 258.388 50.0983 258.361 50.0878C258.273 50.0512 258.179 50.0146 258.069 49.9675C256.734 49.4287 253.964 48.3146 251.752 46.0864C249.796 44.1145 248.122 41.018 249.301 38.2458C249.953 36.708 251.33 35.4579 253.396 34.5268C255.774 33.4546 260.61 33.2767 260.818 33.2715C260.938 33.2715 261.043 33.3656 261.048 33.4859C261.048 33.6062 260.954 33.7109 260.834 33.7161C260.787 33.7161 255.879 33.8939 253.578 34.9348C251.622 35.8188 250.318 36.9904 249.708 38.4236C248.612 40.9918 250.208 43.9053 252.065 45.7778C254.209 47.938 256.927 49.0312 258.231 49.5595C258.341 49.6014 258.44 49.6432 258.523 49.6798C258.638 49.7269 258.69 49.8577 258.643 49.9675C258.607 50.0512 258.523 50.1035 258.44 50.1035H258.445Z" fill="#101529" stroke="#101529" stroke-width="4"/>
<path d="M257.976 49.4656C257.454 49.7219 256.995 50.1665 256.859 50.7366C256.687 51.4793 257.125 52.2587 257.751 52.6981C258.377 53.1322 259.149 53.2891 259.906 53.3885C259.619 53.7023 258.982 53.0956 258.711 53.6919C258.591 53.9482 258.643 54.2829 258.873 54.4503C259.16 54.6595 259.728 54.8426 260.213 54.9054C260.594 54.9525 261.006 55.0518 261.324 54.8321C261.856 54.4608 261.877 53.6814 261.768 53.0433C261.549 51.7252 261.006 50.4594 260.208 49.3923C259.713 48.7333 258.581 49.1727 257.97 49.4708L257.976 49.4656Z" fill="#EE8469"/>
<path d="M260.824 55.1827C260.657 55.1827 260.495 55.1566 260.338 55.1356C260.291 55.1304 260.239 55.1199 260.192 55.1147C259.65 55.0467 259.06 54.8427 258.747 54.6178C258.445 54.3981 258.341 53.9588 258.513 53.5874C258.56 53.488 258.612 53.4148 258.669 53.3572C258.304 53.2474 257.955 53.0957 257.631 52.8708C256.995 52.4262 256.442 51.5736 256.651 50.6792C256.786 50.0934 257.235 49.5808 257.882 49.2617C259.086 48.6706 259.958 48.6654 260.396 49.246C261.215 50.3444 261.768 51.6416 261.997 52.9911C262.107 53.6554 262.107 54.5446 261.46 54.9996C261.262 55.1409 261.048 55.1775 260.829 55.1775L260.824 55.1827ZM259.118 53.6345C259.008 53.6345 258.961 53.6711 258.914 53.7757C258.836 53.9535 258.873 54.1628 259.008 54.2569C259.259 54.4347 259.791 54.6126 260.25 54.6754C260.302 54.6806 260.354 54.691 260.401 54.6963C260.709 54.7381 260.996 54.78 261.199 54.6387C261.679 54.2987 261.627 53.5089 261.554 53.0696C261.34 51.7881 260.813 50.5589 260.036 49.518C259.645 48.9949 258.638 49.3872 258.075 49.6645C257.553 49.9208 257.183 50.3392 257.078 50.7838C256.917 51.4742 257.381 52.1647 257.882 52.5099C258.476 52.9231 259.222 53.0696 259.937 53.1637C260.02 53.1742 260.088 53.2317 260.114 53.3049C260.14 53.3834 260.125 53.4671 260.072 53.5299C259.864 53.76 259.572 53.7025 259.358 53.6606C259.253 53.6397 259.18 53.6292 259.118 53.6292V53.6345Z" fill="#101529" stroke="#101529"/>
<path d="M283.603 23.501C283.514 23.501 283.436 23.4486 283.4 23.365C283.353 23.2499 283.405 23.1243 283.519 23.0773L287.134 21.5709L283.775 19.3269C283.671 19.2589 283.645 19.123 283.712 19.0183C283.78 18.9137 283.916 18.8876 284.02 18.9556L287.724 21.4296C287.792 21.4767 287.828 21.5552 287.823 21.6336C287.812 21.7173 287.766 21.7853 287.687 21.8167L283.686 23.4853C283.66 23.4957 283.629 23.501 283.603 23.501Z" fill="#101529" stroke="#101529"/>
<path d="M271.898 18.1709C271.433 18.1709 271.047 17.81 271.016 17.3445C270.865 15.1058 272.263 12.8619 274.339 12.0145C274.793 11.8314 275.309 12.0459 275.492 12.501C275.674 12.956 275.46 13.4738 275.006 13.6569C273.64 14.2166 272.685 15.7491 272.784 17.2242C272.816 17.7158 272.445 18.1343 271.96 18.1709C271.939 18.1709 271.918 18.1709 271.903 18.1709H271.898Z" fill="white"/>
<path d="M270.828 33.3086C270.364 33.3086 269.978 32.9477 269.947 32.4822C269.795 30.2435 271.193 27.9996 273.269 27.1522C273.723 26.9691 274.24 27.1836 274.422 27.6386C274.605 28.0937 274.391 28.6115 273.937 28.7946C272.57 29.3543 271.616 30.8868 271.715 32.3619C271.746 32.8535 271.376 33.272 270.891 33.3086C270.87 33.3086 270.849 33.3086 270.833 33.3086H270.828Z" fill="white"/>
<path d="M269.759 48.4463C269.295 48.4463 268.909 48.0854 268.877 47.6199C268.726 45.3812 270.124 43.1373 272.2 42.2899C272.654 42.1068 273.17 42.3213 273.353 42.7763C273.536 43.2314 273.322 43.7492 272.868 43.9323C271.501 44.492 270.547 46.0245 270.646 47.4996C270.677 47.9912 270.307 48.4097 269.822 48.4463C269.801 48.4463 269.78 48.4463 269.764 48.4463H269.759Z" fill="white"/>
<path d="M268.69 63.583C268.225 63.583 267.839 63.2221 267.808 62.7566C267.657 60.5179 269.055 58.274 271.131 57.4266C271.585 57.2435 272.101 57.458 272.284 57.9131C272.466 58.3681 272.252 58.886 271.798 59.069C270.432 59.6287 269.477 61.1613 269.576 62.6363C269.608 63.128 269.237 63.5464 268.752 63.583C268.731 63.583 268.71 63.583 268.695 63.583H268.69Z" fill="white"/>
<path d="M304.854 20.5098C304.39 20.5098 304.004 20.1489 303.972 19.6833C303.821 17.4446 305.219 15.2007 307.295 14.3534C307.749 14.1703 308.265 14.3848 308.448 14.8398C308.63 15.2949 308.417 15.8127 307.963 15.9958C306.596 16.5555 305.642 18.088 305.741 19.563C305.772 20.0547 305.402 20.4732 304.917 20.5098C304.896 20.5098 304.875 20.5098 304.859 20.5098H304.854Z" fill="white"/>
<path d="M303.785 35.6514C303.32 35.6514 302.934 35.2905 302.903 34.8249C302.752 32.5863 304.15 30.3423 306.226 29.495C306.68 29.3119 307.196 29.5264 307.379 29.9814C307.561 30.4365 307.347 30.9543 306.893 31.1374C305.527 31.6971 304.572 33.2296 304.671 34.7046C304.703 35.1963 304.332 35.6148 303.847 35.6514C303.826 35.6514 303.805 35.6514 303.79 35.6514H303.785Z" fill="white"/>
<path d="M302.71 50.7891C302.246 50.7891 301.86 50.4282 301.828 49.9626C301.677 47.7239 303.075 45.48 305.151 44.6327C305.605 44.4496 306.121 44.6641 306.304 45.1191C306.486 45.5742 306.273 46.092 305.819 46.2751C304.452 46.8347 303.498 48.3673 303.597 49.8423C303.628 50.334 303.258 50.7525 302.772 50.7891C302.752 50.7891 302.731 50.7891 302.715 50.7891H302.71Z" fill="white"/>
<path d="M301.641 65.9268C301.176 65.9268 300.79 65.5659 300.759 65.1003C300.608 62.8616 302.006 60.6177 304.082 59.7704C304.536 59.5873 305.052 59.8018 305.235 60.2568C305.417 60.7119 305.203 61.2297 304.749 61.4128C303.383 61.9724 302.428 63.505 302.527 64.98C302.559 65.4717 302.188 65.8901 301.703 65.9268C301.682 65.9268 301.661 65.9268 301.646 65.9268H301.641Z" fill="white"/>
<path d="M281.881 24.4215C281.803 25.5461 280.828 26.3935 279.706 26.315C278.585 26.2366 277.74 25.2584 277.818 24.1339C277.896 23.0093 278.872 22.1619 279.993 22.2404C281.115 22.3188 281.96 23.297 281.881 24.4215Z" fill="#EE8469"/>
<path d="M305.052 26.069C304.974 27.1936 303.998 28.0409 302.877 27.9625C301.755 27.884 300.91 26.9059 300.989 25.7813C301.067 24.6567 302.042 23.8094 303.164 23.8878C304.285 23.9663 305.13 24.9444 305.052 26.069Z" fill="#EE8469"/>
<path d="M292.408 29.6001C291.97 29.6001 291.516 29.4693 291.067 29.213C289.988 28.5906 289.127 26.8226 288.757 25.3476C288.725 25.2273 288.798 25.107 288.918 25.0756C289.038 25.0442 289.158 25.1175 289.189 25.2378C289.529 26.5768 290.332 28.2715 291.292 28.8312C292.105 29.3019 292.903 29.2653 293.545 28.7423C294.166 28.2349 294.593 26.9063 294.938 25.6771C294.969 25.5568 295.094 25.4888 295.209 25.5202C295.329 25.5516 295.397 25.6771 295.366 25.7922C294.99 27.1574 294.541 28.4964 293.827 29.0823C293.404 29.4275 292.919 29.6001 292.413 29.6001H292.408Z" fill="#101529" stroke="#101529"/>
<path d="M297.624 22.1991C297.697 21.1896 298.24 20.7293 298.871 20.7712C299.502 20.813 299.972 21.3518 299.904 22.3613C299.831 23.3708 299.288 23.8311 298.657 23.7892C298.026 23.7421 297.556 23.2086 297.624 22.1991Z" fill="#101529" stroke="#101529" stroke-width="2"/>
<path d="M288.386 68.4368C288.386 68.4368 288.376 68.4368 288.37 68.4368C288.251 68.4263 288.157 68.3217 288.167 68.2014L290.603 33.7214C290.613 33.6011 290.718 33.5069 290.838 33.5174C290.958 33.5279 291.052 33.6325 291.041 33.7528L288.605 68.2328C288.595 68.3478 288.501 68.4368 288.386 68.4368Z" fill="#101529" stroke="#101529"/>
<path d="M267.391 8.89238C267.161 8.89238 266.937 8.80346 266.765 8.63085C266.421 8.28563 266.421 7.72073 266.765 7.37551C268.048 6.09925 269.602 5.04267 271.261 4.32608C271.71 4.13255 272.231 4.34177 272.424 4.7916C272.617 5.24143 272.409 5.76449 271.96 5.95802C270.505 6.58569 269.138 7.51151 268.011 8.63608C267.839 8.80869 267.615 8.89238 267.386 8.89238H267.391Z" fill="white"/>
<path d="M314.994 66.9303C314.994 66.9303 314.952 66.9303 314.932 66.9303C314.441 66.8937 314.076 66.4701 314.113 65.9836L314.624 58.7759C314.66 58.2842 315.078 57.9181 315.568 57.9547C316.058 57.9913 316.423 58.415 316.387 58.9014L315.876 66.1091C315.844 66.5747 315.453 66.9356 314.994 66.9356V66.9303Z" fill="white"/>
</g>
</g>
<defs>
<clipPath id="clip0_4_2">
<rect width="340" height="81" fill="white"/>
</clipPath>
</defs>
</svg>
