<svg width="209" height="191" viewBox="0 0 209 191" fill="none" xmlns="http://www.w3.org/2000/svg">
<g clip-path="url(#clip0_1_18)">
<mask id="mask0_1_18" style="mask-type:luminance" maskUnits="userSpaceOnUse" x="0" y="0" width="209" height="191">
<path d="M0 0H209V191H0V0Z" fill="white"/>
</mask>
<g mask="url(#mask0_1_18)">
<path d="M110.314 185.15C110.314 185.15 110.388 185.15 110.432 185.15C110.772 185.09 110.994 184.747 110.935 184.403C109.265 175.732 108.349 165.942 107.463 156.465C107.27 154.465 107.093 152.466 106.901 150.481C106.872 150.137 106.561 149.884 106.221 149.914C105.882 149.943 105.63 150.257 105.66 150.6C105.852 152.585 106.044 154.585 106.221 156.585C107.108 166.091 108.024 175.911 109.708 184.642C109.768 184.941 110.034 185.15 110.329 185.15H110.314Z" fill="#101529"/>
<path d="M46.8385 170.599C47.1487 170.599 47.4147 170.375 47.459 170.061C48.1683 165.136 48.8923 160.062 50.6653 155.346C52.4827 150.496 55.423 146.033 59.1465 142.467C59.3977 142.228 59.4124 141.825 59.176 141.571C58.9396 141.317 58.5407 141.302 58.2895 141.541C54.4183 145.242 51.3746 149.854 49.4833 154.883C47.6807 159.719 46.9271 164.868 46.2179 169.867C46.1736 170.211 46.41 170.539 46.7498 170.584C46.7794 170.584 46.8089 170.584 46.8385 170.584V170.599Z" fill="#101529"/>
<path d="M114.643 182.613C116.875 182.852 119.253 183.135 120.775 185.016C121.544 185.956 121.824 187.239 121.352 188.359C120.613 190.09 118.677 190.314 117.008 190.358C114.451 190.403 112.102 190.403 109.605 189.851C108.083 189.508 107.182 188.612 107.019 185.045C106.96 183.762 107.95 182.687 109.221 182.628C111.068 182.553 113.55 182.493 114.643 182.613Z" fill="#EE8469"/>
<path d="M115.279 191C115.855 191 116.416 191 116.993 190.985C118.943 190.94 121.041 190.627 121.913 188.612C122.46 187.328 122.208 185.791 121.248 184.627C119.519 182.508 116.845 182.224 114.688 182C113.565 181.881 111.068 181.941 109.176 182.015C108.393 182.045 107.669 182.389 107.137 182.971C106.605 183.553 106.339 184.314 106.369 185.09C106.532 188.552 107.359 190.015 109.442 190.477C111.437 190.91 113.358 191.015 115.279 191.015V191ZM114.569 183.239C116.594 183.448 118.884 183.702 120.288 185.418C120.938 186.224 121.13 187.254 120.76 188.104C120.184 189.463 118.603 189.686 116.978 189.716C114.555 189.761 112.176 189.761 109.723 189.224C108.63 188.985 107.787 188.522 107.64 185.015C107.625 184.567 107.773 184.135 108.083 183.806C108.393 183.478 108.792 183.284 109.25 183.269C111.866 183.165 113.772 183.165 114.584 183.239H114.569Z" fill="#101529"/>
<path d="M45.4642 166.122C43.632 164.809 41.6669 163.436 39.288 163.824C38.106 164.018 37.0421 164.794 36.6727 165.943C36.0965 167.734 37.3967 169.196 38.6231 170.346C40.4996 172.092 42.2727 173.659 44.5038 174.912C45.8779 175.688 47.1338 175.599 49.5866 173.032C50.4731 172.107 50.4288 170.629 49.5127 169.749C48.1829 168.465 46.3507 166.749 45.4494 166.107L45.4642 166.122Z" fill="#EE8469"/>
<path d="M45.9371 175.986C47.1635 175.986 48.4194 175.195 50.0447 173.494C50.5914 172.927 50.8721 172.181 50.8574 171.39C50.8426 170.599 50.5175 169.868 49.956 169.315C48.5819 168.002 46.7498 166.286 45.8337 165.614C44.0754 164.346 41.8738 162.764 39.1995 163.211C37.7071 163.45 36.5251 164.435 36.0966 165.763C35.4169 167.853 36.791 169.494 38.2243 170.823C40.0712 172.539 41.9182 174.181 44.2231 175.479C44.8142 175.807 45.3756 175.986 45.9519 175.986H45.9371ZM45.0949 166.644C45.7598 167.121 47.1782 168.405 49.0843 170.226C49.4093 170.539 49.5867 170.957 49.6014 171.405C49.6014 171.852 49.4389 172.285 49.1434 172.599C46.735 175.121 45.7893 174.912 44.8142 174.36C42.6274 173.136 40.8395 171.539 39.0517 169.882C37.8549 168.778 36.8058 167.554 37.2639 166.136C37.5446 165.256 38.3572 164.614 39.3768 164.435C41.5488 164.077 43.4253 165.435 45.0949 166.614V166.644Z" fill="#101529"/>
<path d="M5.80682 103.634C6.13189 103.634 6.39784 103.395 6.42739 103.066C7.65376 90.0376 12.9582 77.3819 21.3655 67.4424C21.5871 67.1737 21.5575 66.7708 21.2916 66.5469C21.0256 66.3231 20.6267 66.3529 20.4051 66.6215C11.8352 76.77 6.41263 89.6794 5.17149 102.962C5.14194 103.305 5.39311 103.619 5.73294 103.648C5.74772 103.648 5.77728 103.648 5.79206 103.648L5.80682 103.634Z" fill="#101529"/>
<path d="M1.28555 108.334C2.73355 111.11 6.14671 112.185 8.90973 110.707C11.658 109.245 12.7218 105.797 11.259 103.007C9.81103 100.231 6.39788 99.1561 3.63485 100.634C0.886604 102.096 -0.177229 105.544 1.28555 108.334Z" fill="#EE8469"/>
<path d="M6.27968 112.006C7.26964 112.006 8.2596 111.767 9.19046 111.275C12.249 109.648 13.4162 105.813 11.8057 102.723C11.0226 101.231 9.70758 100.127 8.11182 99.6341C6.51607 99.1416 4.81688 99.2908 3.33933 100.082C1.86177 100.873 0.768401 102.201 0.280808 103.813C-0.206785 105.425 -0.0590478 107.141 0.724056 108.633C1.847 110.782 4.01902 112.006 6.27968 112.006ZM6.26489 100.604C6.76726 100.604 7.25486 100.679 7.75723 100.828C9.0427 101.231 10.0918 102.111 10.7123 103.305C11.9978 105.768 11.067 108.842 8.61421 110.141C6.17624 111.439 3.13249 110.499 1.84702 108.021C1.22644 106.828 1.09346 105.454 1.4924 104.156C1.89133 102.858 2.76309 101.798 3.94513 101.171C4.68391 100.783 5.4818 100.589 6.27968 100.589L6.26489 100.604Z" fill="#101529"/>
<path d="M96.1149 156.197C53.5997 156.197 19.1343 121.385 19.1343 78.4416C19.1343 35.4987 53.5997 0.686523 96.1149 0.686523C138.63 0.686523 173.095 35.4987 173.095 78.4416C173.095 121.385 138.63 156.197 96.1149 156.197Z" fill="#101529"/>
<path d="M96.1149 156.883C116.86 156.883 136.363 148.72 151.036 133.915C165.708 119.095 173.775 99.3952 173.775 78.4416C173.775 57.488 165.693 37.7881 151.036 22.9684C136.363 8.16354 116.86 0 96.1149 0C75.3701 0 55.8664 8.16354 41.1942 22.9684C26.5221 37.7881 18.4547 57.488 18.4547 78.4416C18.4547 99.3952 26.5369 119.095 41.1942 133.915C55.8664 148.735 75.3701 156.883 96.1149 156.883ZM96.1149 1.3581C116.505 1.3581 135.669 9.3724 150.075 23.9384C164.481 38.4895 172.431 57.8462 172.431 78.4416C172.431 99.037 164.496 118.394 150.075 132.945C135.654 147.496 116.505 155.525 96.1149 155.525C75.7247 155.525 56.5608 147.511 42.1546 132.945C27.7485 118.379 19.7993 99.037 19.7993 78.4416C19.7993 57.8462 27.7337 38.4895 42.1546 23.9384C56.5608 9.3724 75.7247 1.3581 96.1149 1.3581Z" fill="#101529"/>
<path d="M91.5788 147.063C51.5607 147.063 19.1196 114.296 19.1196 73.8748C19.1196 33.454 51.5607 0.686523 91.5788 0.686523C131.597 0.686523 164.038 33.454 164.038 73.8748C164.038 114.296 131.597 147.063 91.5788 147.063Z" fill="#B6D7FB"/>
<path d="M91.5788 147.705C111.097 147.705 129.463 140.019 143.264 126.08C157.064 112.141 164.673 93.5899 164.673 73.875C164.673 54.1601 157.064 35.6093 143.264 21.6701C129.463 7.71596 111.112 0.0449219 91.5788 0.0449219C72.0455 0.0449219 53.6943 7.73089 39.8939 21.6701C26.0936 35.6093 18.4842 54.1601 18.4842 73.875C18.4842 93.5899 26.0936 112.141 39.8939 126.08C53.6943 140.019 72.0603 147.705 91.5788 147.705ZM91.5788 1.3284C110.757 1.3284 128.798 8.88005 142.362 22.5805C155.926 36.2809 163.403 54.5034 163.403 73.875C163.403 93.2466 155.926 111.469 142.362 125.169C128.798 138.87 110.757 146.422 91.5788 146.422C72.4001 146.422 54.3592 138.87 40.7952 125.169C27.2313 111.469 19.7549 93.2466 19.7549 73.875C19.7549 54.5034 27.2313 36.2809 40.7952 22.5805C54.3592 8.86513 72.4001 1.3284 91.5788 1.3284Z" fill="#101529"/>
<path d="M155.01 99.3804C155.291 99.3804 155.557 99.2013 155.645 98.9178C155.764 98.5596 155.572 98.1716 155.232 98.0522L26.0196 53.593C25.665 53.4736 25.2809 53.6676 25.1626 54.0108C25.0444 54.369 25.2365 54.757 25.5764 54.8764L154.788 99.3357C154.788 99.3357 154.936 99.3655 155.01 99.3655V99.3804Z" fill="#101529"/>
<path d="M162.797 103.141C162.915 103.141 163.019 103.111 163.122 103.052C178.356 93.6642 190.309 79.2474 196.796 62.4577C196.928 62.1293 196.766 61.7712 196.441 61.6368C196.116 61.5025 195.761 61.6667 195.628 61.995C189.245 78.531 177.469 92.724 162.472 101.977C162.176 102.156 162.088 102.544 162.265 102.843C162.383 103.037 162.59 103.141 162.797 103.141Z" fill="#101529"/>
<path d="M207.685 51.4438C206.799 49.5932 205.099 48.265 203.356 47.1904C201.923 46.3099 200.386 45.5488 198.716 45.3995C196.19 45.1607 193.604 46.4442 192.141 48.5485C190.678 50.6529 190.353 53.4735 191.166 55.9062C190.93 54.6227 190.678 53.3243 190.442 52.0408C190.206 50.8319 189.954 49.5485 189.186 48.5933C188.403 47.6382 186.94 47.1307 185.935 47.8471C185.005 48.5038 184.872 49.8917 185.211 50.9812C186.94 56.5479 185.876 61.8908 196.633 65.8905C203.696 68.5171 210.67 57.6374 207.685 51.4588V51.4438Z" fill="#EE8469"/>
<path d="M198.805 66.9053C201.125 66.9053 203.504 65.7412 205.469 63.5325C209.192 59.3686 209.694 54.1601 208.246 51.1603C207.197 48.9814 205.144 47.5337 203.681 46.6532C202.41 45.8771 200.696 44.9518 198.775 44.7727C196.057 44.519 193.249 45.8622 191.639 48.1904C191.225 48.7873 190.9 49.444 190.649 50.1305C190.442 49.444 190.146 48.7724 189.674 48.1904C188.743 47.0412 186.911 46.3845 185.566 47.3248C184.34 48.1904 184.207 49.8768 184.606 51.1752C184.916 52.1751 185.138 53.19 185.359 54.175C186.364 58.7716 187.324 63.0997 196.411 66.4875C197.194 66.771 197.992 66.9203 198.805 66.9203V66.9053ZM207.124 51.7274C208.572 54.7272 207.463 59.4432 204.538 62.6967C202.203 65.2935 199.396 66.2487 196.84 65.2935C188.388 62.1445 187.546 58.3239 186.571 53.8914C186.349 52.8915 186.113 51.8468 185.788 50.7872C185.536 49.9664 185.581 48.847 186.275 48.3695C186.984 47.862 188.122 48.2948 188.684 48.9963C189.378 49.847 189.615 51.0707 189.807 52.1602L190.117 53.787C190.161 54.5779 190.309 55.354 190.56 56.1151C190.664 56.4285 190.989 56.6076 191.314 56.533C191.639 56.4435 191.831 56.1301 191.772 55.8017L191.358 53.6377C191.269 51.9662 191.713 50.2798 192.644 48.9366C194.003 46.9666 196.367 45.8473 198.642 46.0562C200.312 46.2204 201.849 47.0561 203.016 47.7576C204.331 48.5635 206.193 49.8619 207.094 51.7423L207.124 51.7274Z" fill="#101529"/>
<path d="M84.1466 46.7428C85.0036 43.9968 84.0432 42.191 82.344 41.6537C80.6448 41.1164 78.8422 42.0417 77.9852 44.7878C77.1283 47.5338 78.0887 49.3397 79.7878 49.8769C81.487 50.4142 83.2896 49.4889 84.1466 46.7428Z" fill="#101529"/>
<path d="M122.593 58.9206C123.45 56.1745 122.489 54.3687 120.79 53.8314C119.091 53.2942 117.288 54.2195 116.431 56.9655C115.574 59.7116 116.535 61.5174 118.234 62.0547C119.933 62.5919 121.736 61.6666 122.593 58.9206Z" fill="#101529"/>
<path d="M123.346 69.1445C122.386 72.2188 124.085 75.4872 127.129 76.4573C130.173 77.4274 133.408 75.7111 134.369 72.6367C135.329 69.5623 133.63 66.2939 130.586 65.3239C127.542 64.3538 124.307 66.0701 123.346 69.1445Z" fill="#EE8469"/>
<path d="M60.565 49.2353C59.6046 52.3097 61.3038 55.5781 64.3475 56.5481C67.3913 57.5182 70.6271 55.8019 71.5875 52.7275C72.5479 49.6532 70.8488 46.3848 67.805 45.4147C64.7612 44.4446 61.5254 46.1609 60.565 49.2353Z" fill="#EE8469"/>
<path d="M101.257 69.7257C105.911 69.7257 110.27 68.875 113.52 68.1288C113.89 68.0392 114.111 67.681 114.023 67.3079C113.934 66.9348 113.579 66.711 113.21 66.8005C108.674 67.8452 101.892 69.0839 95.3465 67.8303C89.0373 66.6214 83.6886 63.0396 81.0437 58.2788C80.8664 57.9505 80.4527 57.8311 80.1276 58.0251C79.8026 58.2042 79.6844 58.6221 79.8765 58.9504C82.7134 64.0545 88.4167 67.8751 95.11 69.1735C97.1638 69.5764 99.2472 69.7257 101.257 69.7257Z" fill="#101529"/>
</g>
</g>
<defs>
<clipPath id="clip0_1_18">
<rect width="209" height="191" fill="white"/>
</clipPath>
</defs>
</svg>
